<?xml version="1.0" encoding="UTF-8"?>
<svg version="1.1" xmlns="http://www.w3.org/2000/svg" width="512" height="512">
<path d="M0 0 C13.35890036 11.72976617 14.33918594 28.77501712 15.48852539 45.46337891 C16.16982463 56.97387725 16.20612537 68.47442065 16 80 C16.66 80 17.32 80 18 80 C18.33 79.01 18.66 78.02 19 77 C21.8125 76.75 21.8125 76.75 25 77 C27.04040776 79.04040776 28 80.08325244 28 83 C29.010625 83.061875 30.02125 83.12375 31.0625 83.1875 C35.58756686 83.84836169 38.72620469 85.86190605 42 89 C45.74940003 94.62410004 46.51953922 100.78793845 45.625 107.375 C43.57205644 115.29936214 36.88887573 121.11171821 30.125 125.25 C27.56921342 126.68960201 25.02925661 127.9871357 22.34375 129.16796875 C13.67214988 133.21720731 9.03288834 139.50280324 3.47314453 147.01416016 C-5.64214381 159.30182262 -15.2883634 170.82704754 -26.625 181.125 C-49.52081958 201.92777548 -60.00368853 231.58997274 -64 262 C-64.37308239 271.52396428 -61.93899481 278.61638483 -56 286 C-55.74605469 285.09636719 -55.49210938 284.19273437 -55.23046875 283.26171875 C-54.71419922 281.49248047 -54.71419922 281.49248047 -54.1875 279.6875 C-53.85105469 278.51574219 -53.51460937 277.34398437 -53.16796875 276.13671875 C-51.52010371 271.71118153 -51.52010371 271.71118153 -49 270 C-45.3766682 270.12940471 -42.93014969 270.24987928 -40.0625 272.5625 C-39.711875 273.036875 -39.36125 273.51125 -39 274 C-38.01 273.67 -37.02 273.34 -36 273 C-27.55158442 272.0998644 -21.02960553 273.08961378 -14 278 C-9.0506265 282.33070181 -6.34689787 287.64101332 -5.6796875 294.1015625 C-5.35575726 303.84106493 -7.19793911 312.47729404 -11.61328125 321.1796875 C-13.22257253 324.45266864 -13.46993008 326.39720276 -13 330 C-11.61350566 332.7000153 -10.64788543 333.71416819 -7.875 334.9375 C-0.92269171 335.08863714 3.91613107 332.40380466 9.0625 327.875 C10.72979591 326.27202878 12.37645349 324.64726716 14 323 C14.6909375 322.30777344 15.381875 321.61554688 16.09375 320.90234375 C32.89791912 303.06458486 38.69462783 283.23556449 38.24609375 259.11328125 C37.70608891 242.49134133 35.1619956 226.25562515 31.8125 210 C30.03442705 201.3550557 28.44018785 192.91447811 28.4375 184.0625 C28.43532471 183.34255859 28.43314941 182.62261719 28.4309082 181.88085938 C28.68564976 173.93521265 31.38983428 167.61016572 37 162 C44.05905238 157.03486878 50.56309199 156.37593284 59 157 C65.50394989 158.73438664 69.40975001 162.45386755 73 168 C79.37199551 182.03026341 79.33704589 197.16820767 79.45629883 212.25292969 C79.47799897 214.56220638 79.51737678 216.87068853 79.55859375 219.1796875 C79.55876747 220.22514236 79.55876747 220.22514236 79.5589447 221.29171753 C79.65187209 225.90048089 80.67609923 229.03653733 83 233 C97.0568424 232.7431474 109.09071614 229.0446322 120 220 C120.54269531 219.43539062 121.08539063 218.87078125 121.64453125 218.2890625 C123 217 123 217 125 217 C125.26554687 216.42765625 125.53109375 215.8553125 125.8046875 215.265625 C127.05756105 212.89089735 128.51225109 210.89533111 130.125 208.75 C138.61634694 196.67498689 143.98449573 183.13641521 148 169 C148.29148926 168.06462402 148.29148926 168.06462402 148.58886719 167.11035156 C150.8373815 158.85503419 150.39187746 150.11511443 150.5 141.625 C150.87709324 112.14210985 150.87709324 112.14210985 159 104 C164.39358685 99.52917138 169.29891021 98.63106928 176.1484375 98.73046875 C181.3869021 99.22561129 185.01778013 101.00426499 188.71875 104.73046875 C196.06910923 113.75627752 197.19204854 124.46467279 197.125 135.75 C197.12234131 136.56549316 197.11968262 137.38098633 197.11694336 138.22119141 C197.07116053 144.2795924 196.86821675 150.32440521 196.5625 156.375 C196.52334473 157.16487305 196.48418945 157.95474609 196.44384766 158.76855469 C196.22772049 162.59259784 195.88433641 166.26943799 195 170 C195.680625 169.649375 196.36125 169.29875 197.0625 168.9375 C200.85167596 167.72818852 203.14693236 168.05363251 207 169 C210.23942217 170.71139284 212.37718497 172.03746768 214.375 175.125 C217.43314201 189.19245324 211.24568786 202.2188434 204 214 C199.01408441 221.6778021 193.5638139 228.83476186 187.30078125 235.5234375 C185.40648813 237.5624559 183.58013548 239.63254118 181.76171875 241.73828125 C164.76666695 261.21050092 146.28020265 275.99375775 122.86328125 286.875 C121.79198975 287.38232666 120.72069824 287.88965332 119.61694336 288.41235352 C117.50624523 289.40531468 115.38360471 290.37339809 113.24829102 291.31225586 C105.76694062 294.83957289 102.52028568 298.59296577 99 306 C98.20607789 307.52429845 97.41056054 309.04776732 96.61328125 310.5703125 C96.23840576 311.3130542 95.86353027 312.0557959 95.47729492 312.82104492 C87.63972004 328.32370561 77.73865496 341.81052739 66.60107422 355.09033203 C65.07017703 356.91629694 63.55224596 358.75240633 62.03515625 360.58984375 C54.5362479 369.58401408 46.3788702 377.82716759 38 386 C39.63028896 389.43819694 41.55339549 391.92953053 44.125 394.75 C44.84945313 395.54921875 45.57390625 396.3484375 46.3203125 397.171875 C46.87460937 397.77515625 47.42890625 398.3784375 48 399 C48.51949219 398.59007812 49.03898437 398.18015625 49.57421875 397.7578125 C50.27160156 397.21898437 50.96898437 396.68015625 51.6875 396.125 C52.37199219 395.59132813 53.05648438 395.05765625 53.76171875 394.5078125 C60.38405542 390.04669216 67.25245449 390.31192502 75 391 C79.67755539 392.18731815 82.34033052 395.04684976 84.9375 399 C88.09990855 405.37717485 87.96789873 411.7590753 86.40625 418.6015625 C82.47039108 430.08115101 73.28971174 438.99310711 63 445 C38.51575634 456.9610527 8.90315498 455.32013092 -17.64575195 455.19561768 C-20.50586176 455.18490233 -23.36592305 455.18519308 -26.22604942 455.18562412 C-41.48911345 455.18507094 -56.73958155 454.99539708 -71.99609375 454.5390625 C-72.68400309 454.51896307 -73.37191242 454.49886364 -74.0806675 454.47815514 C-112.77479206 453.32142006 -112.77479206 453.32142006 -123 444 C-127.20473213 436.79188778 -127.95897772 429.82099473 -126.609375 421.62890625 C-124.44366694 413.61856297 -119.2337245 408.80458636 -112.2109375 404.72265625 C-101.87915595 399 -101.87915595 399 -99 399 C-99 398.34 -99 397.68 -99 397 C-99.85416504 396.72236816 -100.70833008 396.44473633 -101.58837891 396.15869141 C-155.51868483 377.84230155 -155.51868483 377.84230155 -164 363 C-165.46382802 357.68722557 -165.36287585 352.97864001 -163.140625 347.91796875 C-159.607802 341.97750268 -154.66508668 337.88844123 -148 336 C-137.30210139 334.49110463 -128.67225384 338.37217429 -120 344.375 C-112.32229018 349.51229113 -100.39984511 355 -91 355 C-94.59028891 344.79602099 -100.58032562 339.2162276 -109.76953125 333.734375 C-110.42349884 333.34368835 -111.07746643 332.95300171 -111.75125122 332.55047607 C-118.37757003 328.66597711 -125.24820917 325.40703481 -132.23330688 322.22695923 C-135.95926934 320.52731637 -139.66892656 318.79278463 -143.37890625 317.05859375 C-144.11737289 316.71366379 -144.85583954 316.36873383 -145.61668396 316.01335144 C-183.35726485 298.32336366 -220.18628643 276.47370062 -246 243 C-246.80308594 241.96359375 -247.60617188 240.9271875 -248.43359375 239.859375 C-265.79890631 216.85067582 -275.08191059 190.85737101 -275.375 162.0625 C-275.38901855 161.12768799 -275.40303711 160.19287598 -275.41748047 159.22973633 C-275.34944151 149.3789163 -273.43283918 138.73090018 -266.43359375 131.34765625 C-261.10995337 126.47658485 -255.55766546 123.39247346 -248.1171875 123.7109375 C-243.02979413 124.40552626 -238.52842447 125.77726043 -234.5 129 C-231.47303877 133.0359483 -231.88116594 137.16296382 -231.89453125 141.97265625 C-231.88104293 143.6126431 -231.86601407 145.25261785 -231.84960938 146.89257812 C-231.82708248 149.45265076 -231.81224631 152.0113787 -231.82495117 154.5715332 C-231.87176956 167.45165114 -229.8140143 178.05598348 -225 190 C-224.61239502 190.99378662 -224.22479004 191.98757324 -223.82543945 193.01147461 C-222.86574117 195.35889707 -221.84339763 197.649704 -220.75 199.9375 C-220.37504395 200.72398926 -220.00008789 201.51047852 -219.61376953 202.32080078 C-216.11218283 209.33119394 -211.84823865 214.72588129 -206 220 C-205.35933594 220.59554687 -204.71867187 221.19109375 -204.05859375 221.8046875 C-201.1646287 224.20013956 -199.19269944 224.98647723 -195.4375 225.25 C-189.81585384 223.20576503 -187.181624 219.363248 -184.5625 214.125 C-183.38047344 207.55818579 -185.11421605 201.19275349 -186.8671875 194.85913086 C-191.3775775 178.33951076 -193.52374036 158.145544 -184.75 142.625 C-179.98605983 135.8051928 -174.24911113 131.52761317 -166 130 C-159.4799071 129.39504293 -153.547835 129.05811723 -148 133 C-145.39093497 136.91359754 -145.8022696 140.13722767 -145.91015625 144.6640625 C-145.93062404 146.44530924 -145.950796 148.2265594 -145.97070312 150.0078125 C-146.01367223 152.79376416 -146.06160393 155.57949103 -146.11645508 158.36523438 C-146.34060518 170.63496829 -145.63153406 182.00290799 -143 194 C-139.72542324 209.25644119 -140.03743485 224.11230454 -145 239 C-143.97749369 241.21645146 -143.97749369 241.21645146 -142.375 243.4375 C-141.86710938 244.19933594 -141.35921875 244.96117187 -140.8359375 245.74609375 C-136.82342251 250.67209619 -131.72837177 253.38605623 -126.1875 256.25 C-124.90516218 256.91857596 -123.62303032 257.58754705 -122.34106445 258.25683594 C-121.23851318 258.83208008 -120.13596191 259.40732422 -119 260 C-117.14087302 252.63024265 -115.28724895 245.2602764 -113.54260254 237.86244202 C-108.50436192 216.51413036 -102.30164913 195.78201272 -95.07226562 175.07397461 C-91.81439738 165.73430724 -92.95888549 157.53750645 -95.0625 148 C-95.28583008 146.97108643 -95.50916016 145.94217285 -95.73925781 144.88208008 C-96.47077047 141.58255987 -97.22938911 138.29059984 -98 135 C-98.25700684 133.89833496 -98.51401367 132.79666992 -98.77880859 131.66162109 C-102.30419639 116.86970851 -106.75179153 103.37995192 -114 90 C-114.40653809 89.2481543 -114.81307617 88.49630859 -115.23193359 87.72167969 C-117.29186496 83.94017096 -119.38680922 80.17945406 -121.50390625 76.4296875 C-139.24972542 44.99741398 -139.24972542 44.99741398 -135.37890625 30.70703125 C-132.44269768 23.96027644 -126.68241077 18.86523962 -119.9375 16.0625 C-114.0165199 14.20425868 -108.71121283 14.51179705 -103.03125 16.92578125 C-93.52264136 21.95437236 -88.96914126 30.91172713 -84 40 C-83.5354541 40.8362793 -83.0709082 41.67255859 -82.59228516 42.53417969 C-75.98306381 54.49580116 -70.39476916 66.58817387 -65.44433594 79.32299805 C-59.70234232 95.34466162 -59.70234232 95.34466162 -48 107 C-44.06310658 108.39431642 -42.38298352 108.11885695 -38.375 106.875 C-32.80797778 103.78220988 -30.98048624 100.61502129 -29.1875 94.625 C-26.52190306 82.30628096 -29.43468033 69.20909978 -31.21386719 56.88165283 C-32.86173299 45.32899423 -34.48240586 33.81682442 -34.5 22.125 C-34.50588135 21.29025146 -34.5117627 20.45550293 -34.51782227 19.59545898 C-34.36197186 12.171242 -32.37882017 5.37882017 -27 0 C-18.25855713 -6.17533911 -8.50390206 -6.95773805 0 0 Z " fill="#ED6F5D" transform="translate(287,30)"/>
<path d="M0 0 C-0.4125 1.155 -0.825 2.31 -1.25 3.5 C-1.83645965 5.33233566 -2.41937473 7.16580721 -3 9 C-3.35964844 10.02480469 -3.71929687 11.04960937 -4.08984375 12.10546875 C-10.26223911 32.24812549 -9.1094947 54.67453158 -1 74 C-0.55527344 75.19753906 -0.11054687 76.39507812 0.34765625 77.62890625 C4.73074264 88.86136379 11.33320116 98.99980174 18 109 C17.319375 109.515625 16.63875 110.03125 15.9375 110.5625 C13.6150588 112.95414818 13.6150588 112.95414818 14.0625 116.625 C14.6750845 120.25516924 14.6750845 120.25516924 18 122 C20.50896686 122.45601261 20.50896686 122.45601261 23.1875 122.625 C24.08855469 122.69976562 24.98960938 122.77453125 25.91796875 122.8515625 C26.94857422 122.92503906 26.94857422 122.92503906 28 123 C28.45375 124.11375 28.9075 125.2275 29.375 126.375 C30.72465986 129.96199008 30.72465986 129.96199008 33 132 C34.06992188 131.94457031 35.13984375 131.88914062 36.2421875 131.83203125 C40.86414955 132.03862623 42.83774549 133.7332401 46.125 136.6875 C52.86438801 142.3737704 60.08265898 146.95143218 67.62744141 151.49487305 C68.48128418 152.00961182 69.33512695 152.52435059 70.21484375 153.0546875 C71.03509033 153.54783447 71.85533691 154.04098145 72.70043945 154.54907227 C74.81980093 155.88630183 76.79653282 157.31508701 78.7890625 158.83203125 C82.00014095 161.00009517 83.63838765 161.6563721 87.4375 161.8125 C88.30246094 161.86019531 89.16742188 161.90789062 90.05859375 161.95703125 C90.69925781 161.97121094 91.33992188 161.98539063 92 162 C92.05607422 163.24716797 92.05607422 163.24716797 92.11328125 164.51953125 C92.17902344 165.60621094 92.24476563 166.69289063 92.3125 167.8125 C92.37050781 168.89144531 92.42851562 169.97039062 92.48828125 171.08203125 C92.77538459 173.9787477 92.77538459 173.9787477 94.35546875 175.859375 C96.96981081 177.67264788 98.92035389 177.44911506 102 177 C103.91256712 175.11922127 103.91256712 175.11922127 105 173 C111.56323487 175.03232119 117.54537959 178.10482432 123.66577148 181.17504883 C125.66097199 182.17421517 127.66122913 183.16265803 129.66210938 184.15039062 C141.34039902 189.96016249 152.02983678 196.53072156 162 205 C162.93199219 205.78503906 163.86398438 206.57007813 164.82421875 207.37890625 C179.07089224 219.79858478 179.07089224 219.79858478 180.45703125 227.55859375 C180.51282145 230.7284914 180.42650525 233.14698949 179 236 C176.30501127 236.0998144 173.69120054 236.09549421 171 236 C169.73929687 235.98839844 169.73929687 235.98839844 168.453125 235.9765625 C165.55946489 235.72227116 163.58320433 235.35269146 161 234 C159.09202709 231.14687384 157.81903574 228.24565009 156.45703125 225.09765625 C153.02379172 217.7985706 147.00425511 213.79278458 140.23828125 209.74609375 C139.58374969 209.35456116 138.92921814 208.96302856 138.25485229 208.55963135 C131.6272211 204.66933112 124.75543968 201.40869601 117.76669312 198.22695923 C114.04073066 196.52731637 110.33107344 194.79278463 106.62109375 193.05859375 C105.88262711 192.71366379 105.14416046 192.36873383 104.38331604 192.01335144 C66.64273515 174.32336366 29.81371357 152.47370062 4 119 C3.19691406 117.96359375 2.39382812 116.9271875 1.56640625 115.859375 C-15.79890631 92.85067582 -25.08191059 66.85737101 -25.375 38.0625 C-25.38901855 37.12768799 -25.40303711 36.19287598 -25.41748047 35.22973633 C-25.34944151 25.3789163 -23.43283918 14.73090018 -16.43359375 7.34765625 C-11.52970031 2.86064861 -6.80817115 0 0 0 Z " fill="#DA4D32" transform="translate(37,154)"/>
<path d="M0 0 C3.51151439 1.40460575 5.61970172 2.48025902 7.875 5.5625 C11.23615265 15.83268864 7.86625904 25.72007965 3.52734375 35.2265625 C-2.37171742 46.68998634 -9.89558833 57.1215021 -18.69921875 66.5234375 C-20.59351187 68.5624559 -22.41986452 70.63254118 -24.23828125 72.73828125 C-41.23333305 92.21050092 -59.71979735 106.99375775 -83.13671875 117.875 C-84.20801025 118.38232666 -85.27930176 118.88965332 -86.38305664 119.41235352 C-88.49375477 120.40531468 -90.61639529 121.37339809 -92.75170898 122.31225586 C-100.23305938 125.83957289 -103.47971432 129.59296577 -107 137 C-107.79392211 138.52429845 -108.58943946 140.04776732 -109.38671875 141.5703125 C-109.76159424 142.3130542 -110.13646973 143.0557959 -110.52270508 143.82104492 C-118.36133335 159.32578921 -128.2639635 172.81344001 -139.40332031 186.09472656 C-140.92192287 187.90683274 -142.42644884 189.72983515 -143.9296875 191.5546875 C-151.72984766 200.92702413 -160.27493328 209.49156023 -169 218 C-172.54957284 216.81680905 -173.45618788 215.58320083 -175.75 212.6875 C-176.70132812 211.51767578 -176.70132812 211.51767578 -177.671875 210.32421875 C-179 208 -179 208 -178.74182129 206.03285217 C-177.4862563 202.59216093 -174.68187323 200.36197106 -172.09375 197.87109375 C-171.19565613 196.98648216 -171.19565613 196.98648216 -170.27941895 196.08399963 C-168.35994791 194.19453396 -166.43097031 192.31520715 -164.5 190.4375 C-146.59928273 172.99138236 -133.37618401 154.7652882 -121.44091797 132.80664062 C-107.90409265 107.96803088 -107.90409265 107.96803088 -99 105 C-98.67 104.34 -98.34 103.68 -98 103 C-96.3125 102.24609375 -96.3125 102.24609375 -94 101.4375 C-71.49050991 92.76263921 -51.7888267 77.99816245 -34.49169922 61.42871094 C-33.11834504 60.11334782 -31.7335176 58.8099915 -30.34765625 57.5078125 C-17.56143028 45.18617294 0.83295114 25.71346325 1.25 7.125 C1.1908568 4.37484136 0.88803465 2.66410394 0 0 Z " fill="#DA4D32" transform="translate(493,199)"/>
<path d="M0 0 C0.02650635 0.97267822 0.0530127 1.94535645 0.08032227 2.94750977 C0.54062397 15.19093128 2.59956073 26.93044565 4.9375 38.9375 C11.24971198 71.61099248 11.24971198 71.61099248 11 85 C10.28972656 85.20496094 9.57945312 85.40992188 8.84765625 85.62109375 C7.92855469 85.89050781 7.00945312 86.15992188 6.0625 86.4375 C5.14597656 86.70433594 4.22945313 86.97117187 3.28515625 87.24609375 C1.0597507 87.79026051 1.0597507 87.79026051 0 89 C-0.25005386 91.95817107 -0.25005386 91.95817107 0 95 C2.39763185 97.39763185 3.33273498 97.34280586 6.625 97.625 C7.44226563 97.69976562 8.25953125 97.77453125 9.1015625 97.8515625 C10.04128906 97.92503906 10.04128906 97.92503906 11 98 C10.7253202 106.29533001 9.73533979 114.24474787 8.125 122.375 C7.88281738 123.62168457 7.88281738 123.62168457 7.63574219 124.89355469 C6.83199422 128.79680454 5.89485662 132.44790611 4.40625 136.1484375 C2.93261293 139.85429667 2.61238374 143.25843637 2.375 147.25 C1.9140625 150.9375 1.9140625 150.9375 1 154 C-1.18502081 155.64099522 -3.09861523 156.20499372 -5.70703125 156.98046875 C-9.43843713 158.63957767 -10.48823932 161.72230807 -12.3515625 165.20703125 C-18.685363 175.93847049 -28.62682234 183.98231831 -40.25 188.3046875 C-46.71653575 189.93969228 -53.31806928 190.21905942 -59.4375 187.4375 C-64.99382273 182.15221741 -69.11720032 178.20351928 -69.4375 170.3125 C-69.39118478 161.94797192 -66.43926515 155.45874863 -63 148 C-62.22820015 146.27126451 -61.45719131 144.54217531 -60.6875 142.8125 C-60.38199219 142.15894531 -60.07648438 141.50539063 -59.76171875 140.83203125 C-58.04331489 136.69904966 -57.83813157 132.97014604 -57.8125 128.5 C-57.79832031 127.3759375 -57.78414063 126.251875 -57.76953125 125.09375 C-57.99205546 122.10664532 -58.34509825 120.46202927 -60 118 C-60.66 117.67 -61.32 117.34 -62 117 C-61.505 116.01 -61.505 116.01 -61 115 C-54.63270984 118.90720078 -49.79331031 123.53002398 -48 131 C-46.87542856 141.77149754 -48.71577741 151.52698017 -53.61328125 161.1796875 C-55.22257253 164.45266864 -55.46993008 166.39720276 -55 170 C-53.61350566 172.7000153 -52.64788543 173.71416819 -49.875 174.9375 C-42.92269171 175.08863714 -38.08386893 172.40380466 -32.9375 167.875 C-31.27020409 166.27202878 -29.62354651 164.64726716 -28 163 C-26.96359375 161.96166016 -26.96359375 161.96166016 -25.90625 160.90234375 C-9.10208088 143.06458486 -3.30537217 123.23556449 -3.75390625 99.11328125 C-4.29391109 82.49134133 -6.8380044 66.25562515 -10.1875 50 C-11.96557295 41.3550557 -13.55981215 32.91447811 -13.5625 24.0625 C-13.56467529 23.34255859 -13.56685059 22.62261719 -13.5690918 21.88085938 C-13.30928286 13.77715583 -10.50077377 7.77581246 -5 2 C-2 0 -2 0 0 0 Z " fill="#DA4D32" transform="translate(329,190)"/>
<path d="M0 0 C5.89552425 0.36095046 9.69816283 1.87647732 14 6 C17.74940003 11.62410004 18.51953922 17.78793845 17.625 24.375 C15.57205644 32.29936214 8.88887573 38.11171821 2.125 42.25 C-0.43078658 43.68960201 -2.97074339 44.9871357 -5.65625 46.16796875 C-14.32785012 50.21720731 -18.96711166 56.50280324 -24.52685547 64.01416016 C-33.64214381 76.30182262 -43.2883634 87.82704754 -54.625 98.125 C-77.52081958 118.92777548 -88.00368853 148.58997274 -92 179 C-92.35036595 187.46410365 -90.08533002 194.60749806 -86 202 C-86.66 201.690625 -87.32 201.38125 -88 201.0625 C-90.70688961 200.10380993 -92.33371134 199.91549958 -95.125 199.8125 C-96.40375 199.544375 -97.6825 199.27625 -99 199 C-101.83918699 193.98474678 -102.45890307 189.62428829 -102.3125 183.875 C-102.29977051 183.12492676 -102.28704102 182.37485352 -102.27392578 181.60205078 C-101.59857617 155.43085784 -92.68741501 117.8566398 -74.28515625 98.16015625 C-71.64159609 95.66120109 -68.90650743 93.28396027 -66.16088867 90.89819336 C-51.91679271 78.38572629 -39.24551685 65.28655557 -28 50 C-23.67150968 44.17666103 -19.62209578 39.23287857 -13.56640625 35.15625 C-11.84527716 34.06890422 -11.84527716 34.06890422 -11 32 C-10.34 32 -9.68 32 -9 32 C-8.46375 33.134375 -7.9275 34.26875 -7.375 35.4375 C-5.67966645 38.42394166 -5.36627475 38.88040008 -1.9375 40 C1.06258675 40.15481984 1.06258675 40.15481984 4 39 C4.02712153 37.083412 4.04645097 35.1667127 4.0625 33.25 C4.07410156 32.18265625 4.08570313 31.1153125 4.09765625 30.015625 C4.01510087 27.46631499 3.74617558 25.42066409 3 23 C4.49739583 21.79557292 5.99479167 20.59114583 7.4921875 19.38671875 C9.25292107 17.87729455 9.25292107 17.87729455 11 15 C10.68269476 11.36060068 10.68269476 11.36060068 10 8 C5.05 7.01 5.05 7.01 0 6 C0 4.02 0 2.04 0 0 Z " fill="#DA4D32" transform="translate(315,113)"/>
<path d="M0 0 C3.5 1 3.5 1 5.20703125 3.07421875 C6.81809454 6.71979701 6.833089 9.91146143 6.6875 13.8125 C6.66719727 14.85180664 6.66719727 14.85180664 6.64648438 15.91210938 C6.61138845 17.60841265 6.55758943 19.30431136 6.5 21 C7.15226562 20.95359375 7.80453125 20.9071875 8.4765625 20.859375 C14.57954686 20.60733435 17.7968115 21.03942021 22.5 25 C22.13493976 31.32771084 22.13493976 31.32771084 19.375 34.25 C15.26315678 36.75286109 11.42350819 39 6.5 39 C6.54640625 39.79664063 6.5928125 40.59328125 6.640625 41.4140625 C6.97249785 51.15690111 6.97249785 51.15690111 4.8125 54.6875 C2.5 57 2.5 57 0 58.125 C-2.5 58 -2.5 58 -4.5625 56.625 C-7.22047598 53.02387125 -8.83780793 49.13779728 -10.5 45 C-11.24443359 45.63228516 -11.24443359 45.63228516 -12.00390625 46.27734375 C-16.36079368 49.79096264 -19.65155854 52.22494006 -25.5 52 C-28 50.4375 -28 50.4375 -29.5 48 C-29.5 43.09118528 -27.86748132 40.453827 -24.5 37 C-21.89788304 34.90537048 -19.22814669 32.92691914 -16.5 31 C-17.12648437 30.38511719 -17.75296875 29.77023437 -18.3984375 29.13671875 C-19.62433594 27.92435547 -19.62433594 27.92435547 -20.875 26.6875 C-21.68710938 25.88699219 -22.49921875 25.08648437 -23.3359375 24.26171875 C-25.5 22 -25.5 22 -27.5 19 C-27.1758631 15.67759676 -26.89223697 14.39223697 -24.5 12 C-18.45775707 11.28914789 -15.40082164 12.79946342 -10.5 16 C-10.11908203 14.64455078 -10.11908203 14.64455078 -9.73046875 13.26171875 C-9.38628906 12.08222656 -9.04210937 10.90273438 -8.6875 9.6875 C-8.35105469 8.51574219 -8.01460937 7.34398437 -7.66796875 6.13671875 C-5.92841135 1.46493082 -5.09199276 0 0 0 Z " fill="#FAE8C9" transform="translate(241.5,300)"/>
<path d="M0 0 C0.66 0.33 1.32 0.66 2 1 C1.2884375 1.61875 1.2884375 1.61875 0.5625 2.25 C-2.76519893 5.9770228 -2.33880315 11.12975607 -2.26953125 15.890625 C-1.17229802 28.54856202 5.66093043 40.02943096 11.62890625 50.9921875 C14.36075899 56.1134385 15 59.1309365 15 65 C18.07780761 68.89252139 21.84278887 71.38965813 26 74 C25.566875 74.61746094 25.13375 75.23492187 24.6875 75.87109375 C20.68314383 81.9610521 19.29591157 85.72441951 20 93 C23.86986958 93.07442057 27.2735915 93.04702186 31 92 C36.76549858 111.53036051 36.76549858 111.53036051 37 120 C37.07347656 120.97710937 37.14695313 121.95421875 37.22265625 122.9609375 C37.64921761 131.99528827 35.62233427 139.78937564 32 148 C31.34 148.33 30.68 148.66 30 149 C29.70609375 147.04900391 29.70609375 147.04900391 29.40625 145.05859375 C27.52146109 133.15506587 25.04526918 121.48156242 22.0625 109.8125 C21.89959473 109.16304413 21.73668945 108.51358826 21.56884766 107.8444519 C18.5546007 95.89044581 14.28142857 84.96258857 8.4375 74.125 C8.01839355 73.33617432 7.59928711 72.54734863 7.16748047 71.73461914 C4.75718402 67.21498281 2.30064919 62.72197903 -0.17578125 58.23828125 C-0.7080835 57.27196777 -1.24038574 56.3056543 -1.78881836 55.31005859 C-2.81640564 53.44910862 -3.84943652 51.59114993 -4.88891602 49.73681641 C-11.02542618 38.64409329 -16.8190062 26.64758394 -13.38671875 13.68359375 C-10.77478997 7.80387743 -5.75078497 2.87539248 0 0 Z " fill="#DA4D32" transform="translate(165,47)"/>
<path d="M0 0 C1.99585728 1.87588772 3.38767718 3.74274805 5 6 C5 6.66 5 7.32 5 8 C5.99 7.175 6.98 6.35 8 5.5 C12.22084949 2.49489215 14.8913676 2.24626735 20 3 C22.5625 4.5625 22.5625 4.5625 24 7 C23.91225005 11.82624746 22.74437138 15.06242368 20 19 C20.83144531 19.38091797 20.83144531 19.38091797 21.6796875 19.76953125 C22.76636719 20.28580078 22.76636719 20.28580078 23.875 20.8125 C24.59429687 21.14894531 25.31359375 21.48539062 26.0546875 21.83203125 C28 23 28 23 30 26 C29.86215571 29.30826294 29.54188043 31.30007111 27.5 33.9375 C23.63987047 35.57805505 20.02349836 34.94212197 16 34 C14.64601945 33.3763343 13.30493124 32.72067793 12 32 C12.061875 33.03125 12.12375 34.0625 12.1875 35.125 C11.94457374 40.1454761 10.55659808 43.44340192 7 47 C3.47387427 47.45992944 1.70787792 47.53027414 -1.1796875 45.3671875 C-3.53410401 42.30543556 -3.41581122 40.56365798 -3.25 36.75 C-3.21390625 35.67234375 -3.1778125 34.5946875 -3.140625 33.484375 C-3.09421875 32.66453125 -3.0478125 31.8446875 -3 31 C-3.66386719 31.04640625 -4.32773438 31.0928125 -5.01171875 31.140625 C-9.32539875 31.31695061 -12.25666515 31.36437983 -16.1875 29.4375 C-18 27 -18 27 -18.3125 23.5625 C-16.68732544 19.15131192 -14.88374737 18.09046358 -10.91015625 15.84765625 C-9 15 -9 15 -7 15 C-7.33 14.34 -7.66 13.68 -8 13 C-9.33875064 8.98374807 -9.40990979 6.23573447 -9 2 C-6.24956846 -1.36163855 -3.94195188 -1.63446785 0 0 Z " fill="#FAE8C9" transform="translate(132,285)"/>
<path d="M0 0 C3 0.1875 3 0.1875 6 1 C8.35119399 4.52679099 8.21443452 6.02879485 8.125 10.1875 C8.10695312 11.27417969 8.08890625 12.36085937 8.0703125 13.48046875 C8.04710937 14.31191406 8.02390625 15.14335937 8 16 C9.051875 16.0825 10.10375 16.165 11.1875 16.25 C15.37162859 17.07310726 17.25386595 17.73896582 20 21 C20.125 24.5625 20.125 24.5625 19 28 C14.53804131 31.80578829 8.7493806 33 3 33 C2.83564453 33.97839844 2.83564453 33.97839844 2.66796875 34.9765625 C1.58362516 40.95367592 0.27649472 45.89568901 -3.375 50.875 C-5.73903374 52.51163874 -7.1956358 52.49076374 -10 52 C-12.52117031 49.5628687 -12.98237601 48.17980669 -13.328125 44.65234375 C-13.30234375 43.42644531 -13.2765625 42.20054687 -13.25 40.9375 C-13.23453125 39.70902344 -13.2190625 38.48054688 -13.203125 37.21484375 C-13 34 -13 34 -12 31 C-12.99 30.938125 -13.98 30.87625 -15 30.8125 C-19.67260876 30.12591259 -23.50514712 28.17329257 -27 25 C-28.1875 21.875 -28.1875 21.875 -28 19 C-26.9375 17.125 -26.9375 17.125 -25 16 C-21.8125 15.8125 -21.8125 15.8125 -19 16 C-19.515625 15.113125 -20.03125 14.22625 -20.5625 13.3125 C-22.08307088 9.8085758 -22.30770961 8.52075665 -21 5 C-18.074084 3.537042 -16.24382653 3.55476891 -13 4 C-10.94477075 5.83102242 -9.6085078 7.72916546 -8 10 C-7.59007812 9.44570312 -7.18015625 8.89140625 -6.7578125 8.3203125 C-6.21898437 7.59585938 -5.68015625 6.87140625 -5.125 6.125 C-4.59132812 5.40570313 -4.05765625 4.68640625 -3.5078125 3.9453125 C-2 2 -2 2 0 0 Z " fill="#FAE8C9" transform="translate(232,173)"/>
<path d="M0 0 C2.4375 0.75 2.4375 0.75 4.4375 2.75 C4.703125 5.2109375 4.703125 5.2109375 4.6875 8.125 C4.69523437 9.55972656 4.69523437 9.55972656 4.703125 11.0234375 C4.43646864 13.76058658 3.83492087 15.40987457 2.4375 17.75 C3.35982422 17.69779297 3.35982422 17.69779297 4.30078125 17.64453125 C5.10902344 17.61746094 5.91726563 17.59039062 6.75 17.5625 C7.95076172 17.51029297 7.95076172 17.51029297 9.17578125 17.45703125 C11.4375 17.75 11.4375 17.75 13.234375 19.04296875 C14.4375 20.75 14.4375 20.75 14.375 24.25 C13.4375 27.75 13.4375 27.75 11.5625 29.625 C8.16374953 31.42433849 5.53405157 31.86734133 1.75 31.8125 C0.53763672 31.79896484 0.53763672 31.79896484 -0.69921875 31.78515625 C-1.31410156 31.77355469 -1.92898438 31.76195312 -2.5625 31.75 C-2.50449219 32.40226562 -2.44648438 33.05453125 -2.38671875 33.7265625 C-1.97183829 41.76338977 -1.97183829 41.76338977 -4.75 45.375 C-7.5625 47.75 -7.5625 47.75 -10.1875 48.3125 C-12.97546684 47.65219206 -13.85634696 47.02487073 -15.5625 44.75 C-16.75 42.5625 -16.75 42.5625 -17.5625 40.75 C-18.09875 41.41 -18.635 42.07 -19.1875 42.75 C-21.5625 44.75 -21.5625 44.75 -24.625 45.25 C-27.5625 44.75 -27.5625 44.75 -29.5 43.1875 C-31.11249549 39.48824565 -30.70821796 37.63271086 -29.5625 33.75 C-27.43644763 30.56345851 -25.07282681 27.64048074 -22.5625 24.75 C-23.33851563 24.45609375 -24.11453125 24.1621875 -24.9140625 23.859375 C-28.00225264 22.56579683 -29.59803116 21.47003378 -31.5625 18.75 C-31.25 13.4375 -31.25 13.4375 -29.5625 11.75 C-22.34428539 10.96255841 -17.76835682 13.18926248 -11.5625 16.75 C-11.4696875 15.5434375 -11.4696875 15.5434375 -11.375 14.3125 C-10.09448389 8.69792935 -6.97559368 -0.68054572 0 0 Z " fill="#FAE8C9" transform="translate(460.5625,211.25)"/>
<path d="M0 0 C-1.62773273 1.08515515 -3.25818114 2.16646587 -4.90234375 3.2265625 C-11.7209147 7.91187613 -14.42380186 12.75725607 -16.25 20.75 C-17.75011843 30.16224748 -18.50882477 41.72942291 -16 51 C-15.72830229 53.76922665 -15.81869168 56.18972102 -16 59 C-16.99 59.66 -17.98 60.32 -19 61 C-20.00864081 68.06048569 -17.66829355 73.01956992 -14 79 C-13.34 79.66 -12.68 80.32 -12 81 C-11.28300722 86.94079733 -12.13173853 90.41393328 -15.59765625 95.30078125 C-18.3085892 98.58561643 -20.30821278 99.82111011 -24.5859375 100.2734375 C-29.81957631 100.45584314 -33.78723146 100.48642914 -38 97 C-36.515 96.01 -36.515 96.01 -35 95 C-29.78518597 91.33853483 -26.35262066 87.38063813 -25 81 C-25.10882607 75.42907578 -26.38864891 70.20120617 -27.8671875 64.85913086 C-32.3775775 48.33951076 -34.52374036 28.145544 -25.75 12.625 C-19.4262111 3.57219505 -11.04490566 -0.70499398 0 0 Z " fill="#DA4D32" transform="translate(128,160)"/>
<path d="M0 0 C7.66237981 2.13833855 11.243688 5.98254331 15.5703125 12.390625 C18.9244639 18.51240952 20.5791709 24.73325727 21.60546875 31.57421875 C21.72995895 32.38710861 21.85444916 33.19999847 21.98271179 34.03752136 C23.30988353 43.28802155 23.80772658 52.57209791 24.19067383 61.90258789 C24.31432042 64.85598221 24.46195756 67.80757174 24.61132812 70.75976562 C24.69672777 72.65879105 24.78076434 74.55787838 24.86328125 76.45703125 C24.90794022 77.32890579 24.95259918 78.20078033 24.99861145 79.09907532 C25.17439375 83.81856457 25.01789184 87.61000959 23 92 C20.17116253 93.41441874 18.12623255 93.31900332 15 93 C8.24819676 85.81647235 9.71544222 73.40881533 9.59436035 64.21032715 C9.2853022 43.37554494 6.12909599 24.17285383 1 4 C0.66612631 2.66680187 0.33262581 1.33351002 0 0 Z " fill="#DA4D32" transform="translate(279,26)"/>
<path d="M0 0 C3 0.5625 3 0.5625 4.875 2.0625 C6.50517055 5.68510123 6.19772667 8.60796658 6 12.5625 C7.2375 12.48 8.475 12.3975 9.75 12.3125 C12.8946544 12.31807563 13.80130236 12.42837909 16.5 14.25 C18 16.5625 18 16.5625 18.625 18.875 C17.66647126 22.99667358 15.00439261 25.667075 12 28.5625 C11.01 29.0575 11.01 29.0575 10 29.5625 C10.23783203 30.3978125 10.23783203 30.3978125 10.48046875 31.25 C11.6284287 36.35971648 12.13507994 41.6852524 9.375 46.25 C7 47.5625 7 47.5625 4 47.6875 C0.03030139 46.19886302 -1.04531527 44.24632891 -3 40.5625 C-3 39.9025 -3 39.2425 -3 38.5625 C-3.66 38.5625 -4.32 38.5625 -5 38.5625 C-5.2475 39.160625 -5.495 39.75875 -5.75 40.375 C-7.22418254 42.95481944 -8.38713283 44.1440864 -11 45.5625 C-13.625 45.4375 -13.625 45.4375 -16 44.5625 C-18.48386059 40.83670911 -18.3804212 38.97538598 -18 34.5625 C-16.5 31.625 -16.5 31.625 -15 29.5625 C-16.3921875 28.9128125 -16.3921875 28.9128125 -17.8125 28.25 C-22.54545455 25.74431818 -22.54545455 25.74431818 -24 23.5625 C-24.4375 20.5625 -24.4375 20.5625 -24 17.5625 C-22.5 15.6875 -22.5 15.6875 -20 14.5625 C-15.81429613 14.09932785 -12.05228955 14.44088414 -8 15.5625 C-7.83564453 14.56669922 -7.83564453 14.56669922 -7.66796875 13.55078125 C-5.41714663 1.01571499 -5.41714663 1.01571499 0 0 Z " fill="#FAE8C9" transform="translate(309,106.4375)"/>
<path d="M0 0 C3 0.5 3 0.5 4.67578125 2.171875 C6.3244121 5.07035284 6.30573663 6.9393743 6.1875 10.25 C6.16042969 11.23484375 6.13335937 12.2196875 6.10546875 13.234375 C6.07066406 13.98203125 6.03585938 14.7296875 6 15.5 C7.3303125 15.62375 7.3303125 15.62375 8.6875 15.75 C12.56235558 16.62732579 14.38993519 17.49447083 17 20.5 C17.07332936 24.60644432 16.62818266 26.70970569 14.0625 29.9375 C12 31.5 12 31.5 10 31.5 C10.33 32.16 10.66 32.82 11 33.5 C11.12244289 35.66410684 11.17551142 37.83246523 11.1875 40 C11.20167969 41.1653125 11.21585938 42.330625 11.23046875 43.53125 C11 46.5 11 46.5 9 48.5 C6.625 48.9375 6.625 48.9375 4 48.5 C1.35763149 45.78213525 -0.46417132 42.95561452 -2 39.5 C-2.845625 40.510625 -3.69125 41.52125 -4.5625 42.5625 C-6.203125 44.22265625 -6.203125 44.22265625 -8 45.5 C-11.8125 45.5 -11.8125 45.5 -15 44.5 C-16.52506274 41.44987452 -16.66155966 38.78395832 -16 35.5 C-14.24954563 31.9939879 -12.19324331 28.7441724 -10 25.5 C-10.62648437 25.10167969 -11.25296875 24.70335938 -11.8984375 24.29296875 C-12.71570313 23.76316406 -13.53296875 23.23335937 -14.375 22.6875 C-15.18710938 22.16542969 -15.99921875 21.64335938 -16.8359375 21.10546875 C-19 19.5 -19 19.5 -21 16.5 C-20.54716981 10.04716981 -20.54716981 10.04716981 -18 7.5 C-14.04407344 7.81396243 -10.75516546 8.24827818 -7 9.5 C-6.896875 8.7575 -6.79375 8.015 -6.6875 7.25 C-5.59077172 2.86308688 -4.6329602 0.77216003 0 0 Z " fill="#FAE8C9" transform="translate(200,95.5)"/>
<path d="M0 0 C0.33 0 0.66 0 1 0 C1.13535156 0.556875 1.27070313 1.11375 1.41015625 1.6875 C4.79779887 13.69638881 13.83659962 19.98006826 24.3203125 25.86328125 C33.74665466 30.8559991 43.59498002 34.74623283 53.57055664 38.49926758 C54.6043042 38.89654053 55.63805176 39.29381348 56.703125 39.703125 C57.62770508 40.05020508 58.55228516 40.39728516 59.50488281 40.75488281 C62.28927688 42.14435539 63.99740752 43.62932619 66 46 C66.5 48.5 66.5 48.5 66 51 C64 53.3125 64 53.3125 62 55 C55.51319297 52.89630125 49.24896707 50.32427799 42.9375 47.75 C41.78572266 47.28464844 40.63394531 46.81929688 39.44726562 46.33984375 C3.33192026 31.63443672 3.33192026 31.63443672 -5.0625 20.1875 C-6.55659997 15.1075601 -6.39128801 9.89318052 -4.06640625 5.05859375 C-2.86222525 3.2280622 -1.55204239 1.55204239 0 0 Z " fill="#DA4D32" transform="translate(128,373)"/>
<path d="M0 0 C2.9375 0.25 2.9375 0.25 6 1 C8.4294516 4.6441774 8.16179575 6.71241272 8 11 C8.886875 10.505 9.77375 10.01 10.6875 9.5 C13.88366931 8.05267805 15.57226342 7.42871057 19 8 C21 11 21 11 20.875 14.4375 C19.9392619 18.24729086 19.0011414 19.57972468 16 22 C16.66 22.886875 17.32 23.77375 18 24.6875 C19.98494724 27.97506886 20.61923571 29.28458576 20 33 C18 35 18 35 15.125 35.375 C11.37431801 34.92491816 10.33511483 33.87398748 8 31 C7.76925781 31.63808594 7.53851563 32.27617187 7.30078125 32.93359375 C6.32549888 35.40456607 5.35161692 37.71131959 4 40 C1.25 41.0625 1.25 41.0625 -1 41 C-5.58682606 35.37743903 -6.11470449 33.11167844 -6 26 C-6.92232422 26.05220703 -6.92232422 26.05220703 -7.86328125 26.10546875 C-8.67152344 26.13253906 -9.47976563 26.15960938 -10.3125 26.1875 C-11.51326172 26.23970703 -11.51326172 26.23970703 -12.73828125 26.29296875 C-15 26 -15 26 -16.765625 24.67578125 C-18.69113285 22.06172155 -18.45804343 20.1408692 -18 17 C-15.07619215 14.17029171 -12.74997435 13.57565621 -8.75 13.3125 C-7.85796875 13.24675781 -6.9659375 13.18101562 -6.046875 13.11328125 C-5.37140625 13.07589844 -4.6959375 13.03851563 -4 13 C-4.061875 11.948125 -4.12375 10.89625 -4.1875 9.8125 C-3.9792825 5.57874417 -3.01257835 3.01257835 0 0 Z " fill="#FAE7C8" transform="translate(346,262)"/>
<path d="M0 0 C2.4375 2.125 2.4375 2.125 4 5 C4.25 8.8125 4.25 8.8125 4 12 C4.73605469 11.95359375 5.47210938 11.9071875 6.23046875 11.859375 C14.11796787 11.56763131 14.11796787 11.56763131 18.1875 13.5625 C20.66760547 16.89781425 20.59059604 18.93965219 20 23 C18.9375 24.875 18.9375 24.875 17 26 C13.3125 26.6875 13.3125 26.6875 10 27 C10.12375 28.85625 10.12375 28.85625 10.25 30.75 C10.24442437 33.8946544 10.13412091 34.80130236 8.3125 37.5 C6 39 6 39 3.5625 39.625 C-0.40858742 38.65644209 -1.77704147 36.30268124 -4 33 C-4 31.68 -4 30.36 -4 29 C-4.66386719 29.05800781 -5.32773437 29.11601562 -6.01171875 29.17578125 C-13.22254616 29.54421769 -13.22254616 29.54421769 -17.125 26.8125 C-19 24 -19 24 -19.6875 21.5 C-18.60934783 17.57944665 -16.2991193 16.30938351 -13 14 C-12.34 14 -11.68 14 -11 14 C-11.04640625 13.25234375 -11.0928125 12.5046875 -11.140625 11.734375 C-11.43281527 3.76175487 -11.43281527 3.76175487 -9.4375 0.25 C-5.85025979 -1.58961036 -3.81259774 -1.15739574 0 0 Z " fill="#FAE8C9" transform="translate(69,248)"/>
<path d="M0 0 C2.5 0.125 2.5 0.125 5 1 C7.42363044 4.11609628 7.17392151 7.17372685 7 11 C7.67095703 10.45859375 7.67095703 10.45859375 8.35546875 9.90625 C13.30324379 6.1083843 13.30324379 6.1083843 16.8125 5.5625 C19 6 19 6 21 8 C21.51735644 12.65620796 20.68362626 15.19819614 18 19 C18.99 19.33 19.98 19.66 21 20 C21.25 22.8125 21.25 22.8125 21 26 C18.0060264 29.47300938 14.39195091 29.57769703 10 30 C10.061875 31.093125 10.12375 32.18625 10.1875 33.3125 C10 37 10 37 8.8125 38.9375 C6.33950907 40.38718434 4.82115488 40.42317323 2 40 C0.1875 38.875 0.1875 38.875 -1 37 C-1.1875 33.8125 -1.1875 33.8125 -1 31 C-1.66 31.33 -2.32 31.66 -3 32 C-5.05859375 32.203125 -5.05859375 32.203125 -7.4375 32.25 C-8.21996094 32.27578125 -9.00242187 32.3015625 -9.80859375 32.328125 C-12.53086455 31.92051226 -13.37250975 31.18534069 -15 29 C-15.52833843 25.45258485 -15.50181066 23.72260736 -13.4375 20.75 C-10.42654932 18.58829182 -7.58925469 17.82828954 -4 17 C-4.04125 15.824375 -4.0825 14.64875 -4.125 13.4375 C-4.125 8.45017592 -3.64575537 3.64575537 0 0 Z " fill="#FAE8C9" transform="translate(334,327)"/>
<path d="M0 0 C5.12256321 6.14707585 6.48515019 9.84216275 6.30078125 17.84765625 C5.25500198 28.80796625 -1.57364674 37.1582766 -9.57421875 44.296875 C-34.13749766 63.37375731 -70.66615685 60.3147914 -100.10571289 60.1373291 C-103.94154591 60.11648891 -107.77740737 60.10765572 -111.61328125 60.09765625 C-119.07559562 60.07651187 -126.53777387 60.04259824 -134 60 C-134 59.67 -134 59.34 -134 59 C-132.89698296 58.9845388 -132.89698296 58.9845388 -131.77168274 58.96876526 C-124.78549803 58.87011307 -117.79938445 58.76751325 -110.81332111 58.66066074 C-107.22314909 58.6058831 -103.63296858 58.55254432 -100.04272461 58.50268555 C-96.56725885 58.45436458 -93.09187354 58.40201388 -89.61650658 58.34705925 C-87.66880044 58.31725579 -85.72103441 58.29145039 -83.77326965 58.26576233 C-61.70267233 57.90502421 -37.57138365 56.97716056 -20.796875 40.88671875 C-10.10406082 29.77564824 -2.69164901 15.21490022 0 0 Z " fill="#DB4E33" transform="translate(368,425)"/>
<path d="M0 0 C3.1875 0.3125 3.1875 0.3125 5.4375 2 C9.95672389 7.97183157 9.67332475 14.11086259 9.1875 21.3125 C8.59561061 24.5208724 7.65184409 27.38381183 6.1875 30.3125 C0.10631046 32.65141905 -10.32298747 32.51054853 -16.41796875 30.41796875 C-18.3125 29.3125 -18.3125 29.3125 -20.8125 27.3125 C-21.29024481 21.10181751 -21.29024481 21.10181751 -19.375 17.9375 C-15.69170157 15.60174977 -12.10331462 15.49586815 -7.8125 15.3125 C-7.77511719 14.72082031 -7.73773438 14.12914062 -7.69921875 13.51953125 C-6.63577113 0.7373079 -6.63577113 0.7373079 0 0 Z " fill="#FAE8C9" transform="translate(239.8125,376.6875)"/>
<path d="M0 0 C4.63235294 2.26470588 4.63235294 2.26470588 6 5 C6.54909783 12.00099728 4.70449464 16.53795218 0.75 22.25 C-3.16385451 26.16385451 -6.77123816 27.74283517 -12.25 28.375 C-15 28 -15 28 -16.8125 26.6875 C-19.4306026 22.96703841 -19.29311417 19.3967126 -19 15 C-16.94508479 9.04074589 -14.52189039 4.58988742 -9.125 1.1875 C-5.72276042 -0.10535104 -3.60296988 -0.4599536 0 0 Z " fill="#FAE8C9" transform="translate(399,277)"/>
<path d="M0 0 C4.02396312 0.64017595 5.79025037 2.68424453 8.75 5.4375 C9.45125 4.591875 10.1525 3.74625 10.875 2.875 C13.75 0.4375 13.75 0.4375 16.9375 0.4375 C19.75 1.4375 19.75 1.4375 21.75 4.4375 C22.85150424 10.93125172 21.28863651 16.01322328 17.75 21.4375 C15.36384351 24.72875033 14.4195113 25.32591478 10.375 26 C5.92479417 25.30945082 3.53402943 23.85634933 0.75 20.4375 C-3.11357431 14.50996363 -5.13542751 9.52092005 -4.25 2.4375 C-2.25 0.4375 -2.25 0.4375 0 0 Z " fill="#FAE7C8" transform="translate(112.25,218.5625)"/>
<path d="M0 0 C0.66 0.33 1.32 0.66 2 1 C1.2575 1.515625 0.515 2.03125 -0.25 2.5625 C-4.96593444 6.7425328 -7.50619212 11.76620458 -8.23828125 18.04296875 C-8.50366943 25.71129039 -5.96910859 32.90690246 -0.71484375 38.65625 C7.17107847 44.83565147 17.34658083 46.08597899 27 47 C27.91394531 47.08878418 28.82789063 47.17756836 29.76953125 47.26904297 C36.17642947 47.88501097 42.58643267 48.45813109 49 49 C49 49.33 49 49.66 49 50 C-1.19860897 50.75828714 -1.19860897 50.75828714 -13 40 C-17.20473213 32.79188778 -17.95897772 25.82099473 -16.609375 17.62890625 C-14.52348874 9.91380129 -9.30884416 5.02207143 -2.625 0.9375 C-1.75875 0.628125 -0.8925 0.31875 0 0 Z " fill="#DA4D33" transform="translate(177,434)"/>
<path d="M0 0 C3.80852039 1.26454778 5.94718051 4.34687668 8 7.6640625 C9.820308 13.12498649 10.3041159 20.39784495 8.140625 25.81640625 C6.15053678 28.76548626 4.81626101 30.48914943 1.375 31.2265625 C-3.17956309 30.46746865 -4.60378269 28.34737644 -7.484375 24.90234375 C-11.37497439 19.15669053 -11.94219657 13.44787782 -11 6.6640625 C-8.936072 1.63383798 -5.3051708 -0.38181153 0 0 Z " fill="#FAE8C9" transform="translate(198,263.3359375)"/>
<path d="M0 0 C2.8125 1 2.8125 1 4.8125 3 C4.7890625 5.1640625 4.7890625 5.1640625 4.4375 7.625 C4.27121094 8.85089844 4.27121094 8.85089844 4.1015625 10.1015625 C3.95847656 11.04128906 3.95847656 11.04128906 3.8125 12 C4.59625 11.95875 5.38 11.9175 6.1875 11.875 C8.8125 12 8.8125 12 10.8125 14 C11.28561048 17.54832863 11.10358467 19.46845408 9.375 22.625 C3.86456549 27.73223199 -2.01003998 29.48328427 -9.4375 29.23828125 C-11.1875 29 -11.1875 29 -12.1875 28 C-13.23334223 18.70743462 -11.28298456 9.91575991 -5.8125 2.25 C-3.1875 0 -3.1875 0 0 0 Z " fill="#FAE8C9" transform="translate(346.1875,192)"/>
<path d="M0 0 C3.0625 0.1875 3.0625 0.1875 5.0625 2.1875 C6.29661617 9.52044608 4.43653368 16.6685337 1.0625 23.1875 C-0.765625 25.5703125 -0.765625 25.5703125 -2.9375 27.1875 C-6.05523382 27.15854272 -7.46486199 26.58297262 -9.8515625 24.5859375 C-15.69764358 17.67207905 -18.57478826 12.42817983 -17.9375 3.1875 C-16.9375 2.1875 -16.9375 2.1875 -13.625 1.9375 C-9.83982794 2.19412183 -8.60724142 2.62454824 -5.9375 5.1875 C-5.628125 4.548125 -5.31875 3.90875 -5 3.25 C-3.43883333 0.2195 -3.43883333 0.2195 0 0 Z " fill="#FAE8C9" transform="translate(274.9375,51.8125)"/>
<path d="M0 0 C5.89552425 0.36095046 9.69816283 1.87647732 14 6 C17.74940003 11.62410004 18.51953922 17.78793845 17.625 24.375 C15.79371607 31.70013572 9.16277259 37.93519255 3 42 C2.34 42 1.68 42 1 42 C1.33 41.01 1.66 40.02 2 39 C2.66 39 3.32 39 4 39 C4.02712153 37.083412 4.04645097 35.1667127 4.0625 33.25 C4.07410156 32.18265625 4.08570313 31.1153125 4.09765625 30.015625 C4.01510087 27.46631499 3.74617558 25.42066409 3 23 C4.49739583 21.79557292 5.99479167 20.59114583 7.4921875 19.38671875 C9.25292107 17.87729455 9.25292107 17.87729455 11 15 C10.68269476 11.36060068 10.68269476 11.36060068 10 8 C6.7 7.34 3.4 6.68 0 6 C0 4.02 0 2.04 0 0 Z " fill="#DB4F34" transform="translate(315,113)"/>
<path d="M0 0 C5.65332636 0.34612202 10.11771157 1.63242552 14 6 C14.4375 9.3125 14.4375 9.3125 14 12 C13.01 12.495 13.01 12.495 12 13 C11.87625 12.21625 11.7525 11.4325 11.625 10.625 C10.2707816 7.80898488 10.2707816 7.80898488 7.640625 7.22265625 C5.09797096 6.73064551 2.56997021 6.31769004 0 6 C0 4.02 0 2.04 0 0 Z " fill="#EE6F5C" transform="translate(315,113)"/>
<path d="M0 0 C1.30660357 4.29727397 0.6596762 7.60215865 0 12 C-1.98 12.66 -3.96 13.32 -6 14 C-5.31113213 10.61108678 -4.01283514 7.81988387 -2.4375 4.75 C-1.75494141 3.41195313 -1.75494141 3.41195313 -1.05859375 2.046875 C-0.70925781 1.37140625 -0.35992187 0.6959375 0 0 Z " fill="#ED725F" transform="translate(330,332)"/>
<path d="M0 0 C1.98 0 3.96 0 6 0 C6 3.3 6 6.6 6 10 C5.67 10 5.34 10 5 10 C5 7.69 5 5.38 5 3 C2.525 2.01 2.525 2.01 0 1 C0 0.67 0 0.34 0 0 Z " fill="#EC8069" transform="translate(123,316)"/>
</svg>
